<svg width="109" height="19" viewBox="0 0 109 19" fill="none" xmlns="http://www.w3.org/2000/svg">
<path fill-rule="evenodd" clip-rule="evenodd" d="M62.0533 0.459625C62.0207 0.544422 62.0074 1.40695 62.0236 2.37622L62.0532 4.13874L62.4275 4.17429C62.6333 4.19378 62.8621 4.25994 62.936 4.32119C63.0402 4.40759 63.0703 5.55587 63.0703 9.43853C63.0703 13.3212 63.0402 14.4695 62.936 14.5559C62.8621 14.6171 62.6333 14.6833 62.4275 14.7028L62.0532 14.7383L62.0236 16.5043C61.9974 18.0709 62.0148 18.2855 62.1779 18.4047C62.3193 18.5081 63.5135 18.5387 67.3466 18.5373C72.8356 18.5353 73.266 18.4965 74.4927 17.8942C76.0716 17.1188 77.096 15.1087 77.096 12.7857C77.096 11.2367 76.6965 10.2127 75.6784 9.15255L75.0398 8.48746L75.4698 7.70491C76.1072 6.54517 76.2769 5.84988 76.2144 4.65416C76.17 3.80427 76.1102 3.55224 75.808 2.93821C75.1478 1.59731 74.0212 0.77697 72.527 0.549132C72.1251 0.487783 69.6174 0.407912 66.9543 0.371509C62.7964 0.314764 62.104 0.327184 62.0533 0.459625ZM77.9066 0.506092C77.7683 0.644314 77.7384 0.965406 77.7384 2.30481C77.7384 4.08446 77.772 4.19228 78.3272 4.19228C78.5098 4.19228 78.717 4.25009 78.7876 4.32076C78.8839 4.41701 78.9161 5.7047 78.9161 9.45619C78.9161 14.2968 78.9092 14.4668 78.709 14.574C78.5951 14.6349 78.3879 14.6848 78.2486 14.6848C77.7804 14.6848 77.7384 14.8405 77.7384 16.5737C77.7384 18.1389 77.7481 18.2126 77.9764 18.3725C78.1855 18.5189 79.0142 18.5392 84.8154 18.5392C90.0707 18.5392 91.44 18.511 91.5311 18.4013C91.6046 18.3127 91.6524 17.2917 91.6644 15.5516C91.6796 13.3546 91.6553 12.8222 91.5362 12.7469C91.4555 12.6957 90.8532 12.6531 90.1979 12.6521C88.8416 12.6503 88.7939 12.6755 88.6449 13.4732C88.4519 14.5064 88.0399 14.6848 85.8467 14.6848C84.7127 14.6848 84.1654 14.6451 84.0767 14.5563C83.8974 14.377 83.8974 11.3523 84.0767 11.173C84.1674 11.0823 84.7905 11.0445 86.1966 11.0445C87.6027 11.0445 88.2258 11.0067 88.3165 10.916C88.4801 10.7524 88.4955 7.59163 88.3342 7.29013C88.2309 7.0972 88.0919 7.08307 86.2929 7.08307C85.1669 7.08307 84.2761 7.03692 84.1553 6.97225C83.9691 6.87257 83.9482 6.73799 83.9482 5.63767C83.9482 4.53735 83.9691 4.40277 84.1553 4.30309C84.4091 4.16733 87.055 4.16059 87.6314 4.29431C88.2097 4.42836 88.4402 4.70031 88.647 5.49217L88.8249 6.173L90.1819 6.20288C91.393 6.22964 91.5495 6.2123 91.6367 6.04228C91.6923 5.93414 91.7116 4.72697 91.6814 3.2487C91.6392 1.18136 91.5966 0.614015 91.4743 0.491745C91.3439 0.361338 90.3135 0.337891 84.6977 0.337891C78.8197 0.337891 78.0559 0.356841 77.9066 0.506092ZM92.9667 0.427291C92.8616 0.493993 92.8375 1.15063 92.8597 3.34313L92.8882 6.173L94.9682 6.20213C96.5607 6.2245 97.0686 6.19934 97.1347 6.09506C97.1823 6.02011 97.2219 5.6578 97.2228 5.28971C97.2241 4.76476 97.2706 4.5744 97.4386 4.40641C97.6802 4.16476 97.9758 4.12997 98.1666 4.32076C98.356 4.51016 98.3509 14.143 98.1613 14.3898C98.0747 14.5025 97.7624 14.5949 97.278 14.6513L96.5285 14.7383L96.4991 16.4907C96.4788 17.6921 96.5082 18.2896 96.5924 18.3911C96.6933 18.5125 97.4718 18.5392 100.924 18.5392C104.607 18.5392 105.153 18.5182 105.3 18.371C105.439 18.2327 105.469 17.9116 105.469 16.5722C105.469 15.4468 105.429 14.9019 105.34 14.8133C105.266 14.7387 104.909 14.6848 104.491 14.6848C103.979 14.6848 103.722 14.6362 103.602 14.5166C103.455 14.3685 103.434 13.7592 103.434 9.43853C103.434 4.12408 103.427 4.18982 104.004 4.19388C104.469 4.1972 104.556 4.35352 104.612 5.28553L104.666 6.173L106.746 6.20213C108.338 6.2245 108.846 6.19934 108.912 6.09506C108.96 6.02011 108.999 4.7699 109 3.31658C109.002 1.05588 108.977 0.650096 108.834 0.506092C108.684 0.356199 107.817 0.338105 100.884 0.339497C96.604 0.34046 93.0414 0.379968 92.9667 0.427291ZM71.4273 4.40962C71.7273 4.57011 71.9568 5.0805 71.9568 5.58703C71.9568 5.93264 71.8886 6.09709 71.6438 6.34185L71.3309 6.6548H69.7254C68.8423 6.6548 68.0437 6.62557 67.9506 6.58981C67.812 6.53671 67.7812 6.3335 67.7812 5.4745C67.7812 4.73446 67.8207 4.40834 67.915 4.37022C68.1745 4.26562 71.2221 4.29966 71.4273 4.40962ZM71.5158 11.1631C71.9427 11.312 72.1779 11.7523 72.2481 12.534C72.3142 13.2704 72.149 13.9194 71.7991 14.2969L71.5341 14.5827L69.6844 14.5535L67.8347 14.5242L67.8052 12.889C67.776 11.2749 67.7787 11.2526 68.0193 11.156C68.3681 11.0158 71.1095 11.0215 71.5158 11.1631Z" fill="white"/>
<path fill-rule="evenodd" clip-rule="evenodd" d="M0.136549 0.466403C0.0469346 0.556018 0.00806947 1.13482 0.00806947 2.38214C0.00806947 4.38053 -0.0257634 4.29938 0.806677 4.29938C1.0646 4.29938 1.31995 4.36351 1.38794 4.44552C1.47531 4.55077 1.50132 5.98 1.4813 9.55794L1.45346 14.5242L0.8646 14.5789C0.540724 14.6089 0.215457 14.672 0.141902 14.7191C-0.0439647 14.8377 -0.0487827 18.2254 0.136549 18.4107C0.231731 18.5059 1.27209 18.5392 4.15421 18.5392H8.0434L8.14778 18.2646C8.26085 17.9671 8.29361 15.1316 8.18718 14.8542C8.139 14.7287 7.97252 14.6848 7.54479 14.6848C7.1101 14.6848 6.91449 14.6319 6.75325 14.4707C6.54554 14.263 6.53911 14.1138 6.53911 9.48502C6.53911 6.40066 6.5783 4.64038 6.64993 4.50644C6.73847 4.34102 6.87691 4.29938 7.33826 4.29938C8.22701 4.29938 8.25217 4.2467 8.25217 2.38835C8.25217 1.13653 8.21802 0.765011 8.08547 0.575932L7.91888 0.337924H4.0919C1.25818 0.337924 0.231731 0.371221 0.136549 0.466403ZM9.81224 0.506125C9.67444 0.644026 9.64404 0.961692 9.64404 2.26405C9.64404 3.13824 9.67327 3.92978 9.70903 4.02293C9.74479 4.11608 9.89243 4.19231 10.0373 4.19231C10.182 4.19231 10.3937 4.2422 10.5076 4.30312C10.7078 4.4103 10.7147 4.58032 10.7147 9.42089C10.7147 13.1724 10.6825 14.4601 10.5862 14.5563C10.5156 14.627 10.3039 14.6848 10.1159 14.6848C9.90292 14.6848 9.7495 14.7486 9.70903 14.8542C9.58194 15.1853 9.63708 18.2753 9.77252 18.4107C9.8662 18.5044 10.6924 18.5392 12.8202 18.5392C15.6599 18.5392 15.7425 18.5332 15.8575 18.3182C15.9339 18.1756 15.9637 17.5094 15.9416 16.4405C15.9052 14.6728 15.8556 14.5195 15.3616 14.6435C15.2288 14.6768 15.0624 14.6275 14.9592 14.5243C14.8073 14.3724 14.7843 14.06 14.7907 12.2414C14.7949 11.0826 14.8343 10.0425 14.8784 9.9301C14.952 9.74263 14.9767 9.75141 15.1782 10.0372C15.299 10.2085 16.4451 12.0831 17.7252 14.203C19.0052 16.3229 20.1938 18.1909 20.3664 18.3541L20.6803 18.6508L22.7906 18.6217L24.901 18.5927L24.9545 11.5085C24.984 7.61211 25.0395 4.39285 25.0779 4.35441C25.1163 4.31597 25.3813 4.2513 25.6667 4.21051L26.1858 4.13631L26.2152 2.3254C26.2376 0.948309 26.212 0.493705 26.1082 0.427859C26.0331 0.380215 24.6165 0.340493 22.9601 0.33953C20.5256 0.338245 19.9251 0.366296 19.8257 0.485996C19.7415 0.587495 19.7121 1.1846 19.7324 2.38471L19.7618 4.13535L20.1402 4.1967C20.7968 4.30334 20.7789 4.23846 20.7789 6.51501C20.7789 8.56115 20.7743 8.60483 20.5849 8.35558C20.4782 8.21511 19.383 6.46212 18.1512 4.45998C16.9193 2.45784 15.8043 0.711371 15.6735 0.578823C15.4389 0.341564 15.3945 0.337924 12.708 0.337924C10.3712 0.337924 9.95646 0.362013 9.81224 0.506125ZM27.9154 0.533748C27.7676 0.697131 27.7382 0.988351 27.7382 2.29263C27.7382 3.9436 27.8076 4.19231 28.2681 4.19231C28.7004 4.19231 28.7099 4.30569 28.7049 9.4543C28.7007 13.9256 28.6828 14.4301 28.5246 14.5475C28.4281 14.6193 28.309 14.6532 28.26 14.6229C28.211 14.5926 28.0736 14.6199 27.9546 14.6836C27.7511 14.7925 27.7382 14.903 27.7382 16.5408C27.7382 17.7525 27.7773 18.3213 27.8667 18.4107C28.0504 18.5944 34.5995 18.5944 34.7832 18.4107C34.9608 18.2331 34.9645 14.8372 34.7872 14.7275C34.7188 14.6852 34.5139 14.6204 34.3321 14.5833L34.0016 14.5161L33.9702 13.6859L33.9389 12.8557L34.6029 12.1643C34.968 11.784 35.3 11.4728 35.3405 11.4728C35.4352 11.4728 36.7329 14.1923 36.7284 14.3814C36.7266 14.46 36.6543 14.6178 36.5678 14.732C36.445 14.8943 36.4106 15.3095 36.4106 16.6287C36.4106 18.1888 36.4263 18.326 36.6177 18.4284C36.747 18.4975 38.0078 18.5392 39.9737 18.5392C42.8883 18.5392 43.1358 18.5246 43.2998 18.3434C43.4482 18.1795 43.4768 17.8879 43.4754 16.55C43.4744 15.6714 43.4378 14.896 43.394 14.8271C43.3501 14.7581 43.1868 14.6698 43.0311 14.6307C42.8753 14.5917 42.6515 14.4553 42.5337 14.3277C42.2565 14.0276 39.1943 7.66843 39.1943 7.39295C39.1943 7.11254 41.5481 4.58953 42.0177 4.36672C42.2198 4.27079 42.649 4.19231 42.9715 4.19231C43.3306 4.19231 43.604 4.13674 43.6768 4.04895C43.8399 3.85237 43.9312 0.658694 43.7788 0.475183C43.6195 0.283213 36.8377 0.274861 36.6462 0.466403C36.5566 0.555911 36.5163 1.14863 36.5132 2.42036C36.5094 3.93471 36.4775 4.30259 36.3258 4.57871C36.1295 4.93621 34.1619 7.16447 34.0284 7.18053C33.9842 7.18578 33.9481 6.57346 33.9481 5.81972C33.9481 4.38118 34.004 4.19231 34.4299 4.19231C34.868 4.19231 34.9117 4.01758 34.9117 2.26512C34.9117 1.1088 34.8722 0.555375 34.7832 0.466403C34.6889 0.372078 33.7829 0.337924 31.3737 0.337924C28.3311 0.337924 28.0798 0.352163 27.9154 0.533748ZM50.0297 0.530429C49.8269 0.733212 49.2519 2.32882 46.8006 9.49209C45.9744 11.9064 45.21 14.0004 45.1018 14.1455C44.9936 14.2906 44.7645 14.4873 44.5926 14.5826L44.28 14.7558V16.6207V18.4857L47.3314 18.5156C49.0096 18.5322 50.4911 18.5193 50.6237 18.4868C50.8617 18.4287 50.8646 18.4063 50.8646 16.6163C50.8646 15.379 50.826 14.7806 50.7429 14.7293C50.676 14.6879 50.2893 14.6304 49.8837 14.6014C49.4781 14.5723 49.1207 14.5074 49.0895 14.457C49.0583 14.4066 49.1182 14.0949 49.2225 13.7641C49.3594 13.3295 49.4816 13.1365 49.6634 13.0674C50.0628 12.9155 53.6529 12.9503 53.9695 13.1092C54.1532 13.2013 54.3031 13.4344 54.4474 13.852C54.5631 14.1867 54.6267 14.4916 54.5889 14.5293C54.5511 14.5671 54.1673 14.5995 53.7363 14.6011C52.5216 14.6056 52.5776 14.5119 52.5776 16.5408C52.5776 17.7525 52.6167 18.3213 52.7061 18.4107C52.8904 18.595 60.6161 18.595 60.8003 18.4107C60.8897 18.3213 60.9288 17.7525 60.9288 16.5408C60.9288 14.8807 60.9183 14.7938 60.7037 14.6789C60.58 14.6126 60.387 14.5825 60.275 14.6117C60.1631 14.641 59.9795 14.5851 59.8672 14.4875C59.7344 14.3721 58.9071 12.0298 57.4979 7.77903C56.3068 4.18696 55.2447 1.07325 55.1374 0.859658C55.03 0.646167 54.8639 0.44135 54.7683 0.404626C54.6726 0.368009 53.6106 0.337924 52.4082 0.337924C50.4469 0.337924 50.2024 0.357731 50.0297 0.530429ZM51.9352 5.51586C51.9352 5.53717 52.2002 6.45269 52.5241 7.55055C52.848 8.6483 53.113 9.57036 53.113 9.59959C53.113 9.62881 52.5348 9.65269 51.8282 9.65269C51.1215 9.65269 50.5434 9.62078 50.5434 9.58192C50.5434 9.34734 51.7701 5.47711 51.8444 5.47711C51.8944 5.47711 51.9352 5.49456 51.9352 5.51586Z" fill="white"/>
</svg>
