<?xml version="1.0" encoding="UTF-8"?><svg id="Capa_1" xmlns="http://www.w3.org/2000/svg" viewBox="0 0 982.99 150.58"><defs><style>.cls-1{fill:#202020;}.cls-1,.cls-2{stroke-width:0px;}.cls-2{fill:#f90;}</style></defs><path class="cls-1" d="M6,31.71h7.64v86.47h-7.64c-3.31,0-6,2.69-6,6v19.7c0,3.31,2.69,6,6,6h61.02c3.31,0,6-2.69,6-6v-19.7c0-3.31-2.69-6-6-6h-8.02V31.71h8.02c3.31,0,6-2.69,6-6V6.09c0-3.31-2.69-6-6-6H6C2.69.09,0,2.78,0,6.09v19.62c0,3.31,2.69,6,6,6Z"/><path class="cls-1" d="M183.76,31.33h4.22v39.37L142.1,2.65c-1.12-1.65-2.98-2.65-4.98-2.65h-44.15c-3.31,0-6,2.69-6,6v19.33c0,3.31,2.69,6,6,6h4.22v86.76h-4.22c-3.31,0-6,2.69-6,6v19.7c0,3.31,2.69,6,6,6h43.99c3.31,0,6-2.69,6-6v-19.7c0-3.31-2.69-6-6-6h-4.23v-45.84l50.09,75.65c1.11,1.68,2.99,2.69,5,2.69h31.5c3.31,0,6-2.69,6-6V31.33h5.63c3.31,0,6-2.69,6-6V6c0-3.31-2.69-6-6-6h-47.19c-3.31,0-6,2.69-6,6v19.33c0,3.31,2.69,6,6,6Z"/><path class="cls-2" d="M982.99,42.25V6c0-3.31-2.69-6-6-6h-133.95c-3.31,0-6,2.69-6,6v36.25c0,3.31,2.69,6,6,6h27.51c3.31,0,6-2.69,6-6v-10.85h10.58v86.97h-10.64c-3.31,0-6,2.69-6,6v19.43c0,3.31,2.69,6,6,6h68.21c3.31,0,6-2.69,6-6v-19.43c0-3.31-2.69-6-6-6h-12.02V31.4h10.35v10.85c0,3.31,2.69,6,6,6h27.95c3.31,0,6-2.69,6-6Z"/><path class="cls-2" d="M674.85,66.84c7.09-5.92,15.33-17.27,12.39-34.18-3.7-21.04-20.97-32.66-48.64-32.66h-73.69c-3.31,0-6,2.69-6,6v19.4c0,3.31,2.69,6,6,6h4.43v86.97h-4.43c-3.31,0-6,2.69-6,6v19.43c0,3.31,2.69,6,6,6h86.41c22.24,0,38.74-14.3,43.05-37.32,4.85-25.77-9.43-39.78-19.52-45.63ZM610.34,32h30.48c6.7,0,8.53,6.41,8.53,10.19,0,2.71-.85,5.29-2.25,7.08-1.51,1.88-3.63,2.83-6.28,2.83h-30.48v-20.11ZM649.53,113.74c-1.65,2.66-3.77,4.04-6.32,4.04h-32.86v-29.72h32.86c6.19,0,8.99,7.57,8.99,14.65,0,4.19-.97,8.19-2.66,11.04Z"/><path class="cls-1" d="M332.45,31.33h.11s-27.43,27.76-27.43,27.76v-27.76h3.22c3.31,0,6-2.69,6-6V6c0-3.31-2.69-6-6-6h-52.59c-3.31,0-6,2.69-6,6v19.33c0,3.31,2.69,6,6,6h3.81v86.76h-3.81c-3.31,0-6,2.69-6,6v19.7c0,3.31,2.69,6,6,6h52.59c3.31,0,6-2.69,6-6v-19.7c0-3.31-2.69-6-6-6h-3.22v-14.81l13.52-13.43,15.06,28.24h-.18c-2.76,0-5,2.24-5,5v20.7c0,3.31,2.69,6,6,6h51.04c3.31,0,6-2.69,6-6v-20.7c0-2.76-2.24-5-5.01-5h-.09c-4.16-.19-7.89-9.49-9.73-13.21l-25.22-47.38,26.38-26.18h11.17c3.29,0,5.97-2.66,6-5.95l.16-19.33c.03-3.33-2.67-6.05-6-6.05h-53.78c-3.31,0-6,2.69-6,6v22.33c0,1.66,1.34,3,3,3Z"/><path class="cls-1" d="M491.62,0h-36.82c-2.51,0-4.75,1.56-5.62,3.91l-36.29,97.64-.58,1.45c-1.39,4.84-5.91,15.09-10.96,15.09h0c-1.13,0-2.04.91-2.04,2.04v23.66c0,3.31,2.69,6,6,6h47.44c3.31,0,6-2.69,6-6v-19.7c0-3.31-2.69-6-6-6h-11.86l4.87-14.54h43.28l4.94,14.54h-13.64c-3.31,0-6,2.69-6,6v19.7c0,3.31,2.69,6,6,6h63.03c3.31,0,6-2.69,6-6v-19.7c0-3.31-2.69-6-6-6h-4.8L497.26,3.96c-.86-2.38-3.12-3.96-5.64-3.96ZM454.36,77.91l12.64-38.09h1.2l11.83,38.09h-25.66Z"/><path class="cls-2" d="M786.19,31.4c10.38,0,13.34,5.36,14.13,11.59.38,2.97,2.94,5.18,5.94,5.18h14.24c3.32,0,6-2.69,6-6l-.03-36.17c0-3.31-2.69-6-6-6h-112.98c-3.31,0-6,2.69-6,6v19.4c0,3.31,2.69,6,6,6h4.4v86.97h-4.4c-3.31,0-6,2.69-6,6v19.43c0,3.31,2.69,6,6,6h112.98c3.31,0,6-2.68,6-6l.03-36.16c0-3.32-2.68-6-6-6h-14.24c-3.04,0-5.55,2.27-5.95,5.28-.76,5.67-3.44,11.07-12.63,11.07h-30.81v-30.3h34.15c3.31,0,6-2.69,6-6v-20.38c0-3.31-2.69-6-6-6h-34.15v-23.9h29.32Z"/></svg>